<?xml version="1.0" encoding="UTF-8"?>
<svg id="Layer_2" data-name="Layer 2" xmlns="http://www.w3.org/2000/svg" viewBox="0 0 256.14 256.2">
  <defs>
    <style>
      .cls-1 {
        stroke-width: 0px;
      }
    </style>
  </defs>
  <g id="Layer_1-2" data-name="Layer 1">
    <g>
      <path class="cls-1" d="M138.78,74.76c0-18-.04-36,.01-54,.04-13.35,7.42-20.72,20.73-20.73,25.33-.02,50.66-.02,75.98,0,12.94.01,20.59,7.58,20.6,20.41.03,36.17.03,72.34,0,108.5,0,12.96-7.47,20.41-20.53,20.44-25.33.05-50.66.04-75.98,0-13.49-.02-20.76-7.23-20.8-20.63-.05-18-.01-36-.01-54ZM154.83,74.05c0,17.99.07,35.99-.06,53.98-.03,3.72.94,5.41,5.03,5.38,25.15-.14,50.3-.12,75.45-.02,3.73.01,4.89-1.43,4.88-5.04-.09-35.82-.09-71.64,0-107.46,0-3.75-1.46-4.9-5.05-4.89-24.98.1-49.97.13-74.95-.03-4.27-.03-5.4,1.58-5.36,5.59.16,17.49.07,34.99.07,52.48Z"/>
      <path class="cls-1" d="M.02,181.12c0-18-.03-36,0-54,.03-12.69,7.5-20.27,20.16-20.3,25.66-.07,51.32-.07,76.98,0,12.79.03,20.14,7.41,20.16,20.24.05,36.33.06,72.67,0,109-.02,12.66-7.61,20.09-20.35,20.11-25.49.03-50.99.03-76.48,0-12.85-.02-20.45-7.65-20.47-20.55-.03-18.17,0-36.33,0-54.5ZM16.05,181.33c0,17.66.1,35.32-.07,52.98-.04,4.18,1.03,5.95,5.59,5.91,24.82-.18,49.63-.14,74.45-.03,3.78.02,5.36-1.05,5.35-5.09-.11-35.82-.1-71.64,0-107.45,0-3.77-1.47-4.87-5.05-4.85-24.98.1-49.97.13-74.95-.02-4.23-.02-5.42,1.53-5.38,5.58.16,17.66.07,35.32.07,52.98Z"/>
      <path class="cls-1" d="M58.83,85.36c-12.66,0-25.32.03-37.99,0C7.44,85.31.05,77.96.02,64.7,0,49.87-.01,35.04.03,20.21.07,7.7,7.77.04,20.35.03c25.66-.03,51.31-.04,76.97,0,12.36.02,19.93,7.54,20.01,19.94.09,15.16.09,30.33,0,45.49-.08,12.42-7.53,19.81-20.02,19.89-12.83.08-25.66.02-38.49.02ZM58.55,16.06c-12.32,0-24.64.12-36.96-.07-4.01-.06-5.67,1.1-5.61,5.37.2,14.15.19,28.31,0,42.46-.05,4.06,1.18,5.59,5.39,5.56,24.81-.15,49.61-.14,74.42,0,4,.02,5.65-1.07,5.59-5.35-.21-14.15-.23-28.31,0-42.46.08-4.55-1.68-5.66-5.88-5.59-12.32.21-24.64.07-36.96.07Z"/>
      <path class="cls-1" d="M197.4,170.83c12.83,0,25.66-.05,38.49.02,12.68.07,20.18,7.6,20.22,20.24.04,15,.05,30,0,44.99-.04,12.27-7.74,20.06-19.92,20.08-25.82.05-51.65.05-77.47,0-12.08-.02-19.81-7.56-19.9-19.54-.12-15.33-.1-30.66,0-45.99.08-12.37,7.58-19.71,20.11-19.79,12.83-.07,25.66-.02,38.49-.02ZM197.29,186.88c-12.32,0-24.64.12-36.96-.07-4.01-.06-5.65,1.08-5.59,5.35.21,14.15.23,28.31,0,42.46-.08,4.55,1.69,5.61,5.89,5.59,24.47-.15,48.95-.16,73.42.01,4.47.03,6.22-1.14,6.13-5.89-.27-13.82-.26-27.64,0-41.46.08-4.54-1.24-6.18-5.92-6.08-12.31.27-24.64.09-36.96.09Z"/>
    </g>
  </g>
</svg>