<svg width="142" height="155" viewBox="0 0 142 155" fill="none" xmlns="http://www.w3.org/2000/svg">
<path d="M108.096 19.0481L108.096 14.9434C108.096 6.6904 101.406 1.17099e-05 93.1527 1.09884e-05L22 4.76805e-06C9.84973 3.70584e-06 -2.56935e-06 9.84973 -3.63156e-06 22L-1.33355e-05 133C-1.43977e-05 145.15 9.84973 155 22 155L58.4706 155L87.0098 155L120 155C132.15 155 142 145.15 142 133L142 52.9519C142 43.5896 134.41 36 125.048 36C115.686 36 108.096 28.4104 108.096 19.0481Z" fill="#E9FC88"/>
</svg>
