<svg width="157" height="125" viewBox="0 0 157 125" fill="none" xmlns="http://www.w3.org/2000/svg">
<path d="M157 103L157 46.2715C157 36.9064 149.408 29.3144 140.043 29.3144L124.086 29.3144L117.901 29.3144C112.504 29.3144 108.129 24.9396 108.129 19.5429C108.129 8.74967 99.3795 9.68652e-06 88.5863 8.64274e-06L22 2.20342e-06C9.84974 1.02842e-06 -6.15842e-06 9.84973 -7.11866e-06 22L-1.35201e-05 103C-1.44804e-05 115.15 9.84972 125 22 125L58.4885 125L87.0364 125L122.018 125L135 125C147.15 125 157 115.15 157 103Z" fill="#F5F5F5"/>
</svg>
