<svg width="318" height="542" viewBox="0 0 318 542" fill="none" xmlns="http://www.w3.org/2000/svg">
<path d="M43 493.455H60.7881C74.1933 493.455 85.0605 504.322 85.0605 517.728C85.0605 531.133 95.9276 542 109.333 542H287C304.121 542 318 528.121 318 511L318 31C318 13.8792 304.121 0 287 0L43 0C25.8792 0 12 13.8792 12 31L12 462.455C12 479.576 25.8792 493.455 43 493.455Z" fill="#2A2C39"/>
<path d="M0.5 130.125L33.47 141.675L33.47 143.95L0.5 132.4L0.5 130.125ZM0.5 139.559L33.47 151.109L33.47 153.384L0.499999 141.834L0.5 139.559ZM0.499999 148.992L33.47 160.542L33.47 162.817L0.499999 151.267L0.499999 148.992ZM0.499999 158.426L33.47 169.976L33.47 172.251L0.499999 160.701L0.499999 158.426ZM0.499998 167.859L33.47 179.409L33.47 181.684L0.499998 170.134L0.499998 167.859ZM0.499998 177.293L33.47 188.843L33.47 191.118L0.499998 179.568L0.499998 177.293ZM0.499998 186.727L33.47 198.277L33.47 200.552L0.499997 189.002L0.499998 186.727ZM0.499997 196.16L33.47 207.71L33.47 209.985L0.499997 198.435L0.499997 196.16ZM0.499997 205.594L33.47 217.144L33.47 219.419L0.499997 207.869L0.499997 205.594ZM0.499996 215.027L33.47 226.577L33.47 228.852L0.499996 217.302L0.499996 215.027ZM0.499996 224.461L33.47 236.011L33.47 238.286L0.499996 226.736L0.499996 224.461ZM0.499995 233.895L33.47 245.445L33.47 247.72L0.499995 236.17L0.499995 233.895ZM0.499995 243.328L33.47 254.878L33.47 257.153L0.499995 245.603L0.499995 243.328ZM0.499995 252.762L33.47 264.312L33.47 266.587L0.499995 255.037L0.499995 252.762ZM0.499994 262.195L33.47 273.745L33.47 276.02L0.499994 264.47L0.499994 262.195ZM0.499994 271.629L33.47 283.179L33.47 285.454L0.499994 273.904L0.499994 271.629ZM0.499993 281.062L33.47 292.613L33.47 294.888L0.499993 283.337L0.499993 281.062Z" fill="#EDB4F8"/>
</svg>
